<?xml version="1.0" encoding="UTF-8" standalone="no"?>
<svg
   xmlns:dc="http://purl.org/dc/elements/1.1/"
   xmlns:cc="http://creativecommons.org/ns#"
   xmlns:rdf="http://www.w3.org/1999/02/22-rdf-syntax-ns#"
   xmlns:svg="http://www.w3.org/2000/svg"
   xmlns="http://www.w3.org/2000/svg"
   xmlns:sodipodi="http://sodipodi.sourceforge.net/DTD/sodipodi-0.dtd"
   xmlns:inkscape="http://www.inkscape.org/namespaces/inkscape"
   viewBox="0 0 100 100"
   version="1.1"
   x="0px"
   y="0px"
   id="svg32"
   sodipodi:docname="noun_carbon.svg"
   width="100"
   height="100"
   inkscape:version="0.92.3 (2405546, 2018-03-11)">
  <metadata
     id="metadata38">
    <rdf:RDF>
      <cc:Work
         rdf:about="">
        <dc:format>image/svg+xml</dc:format>
        <dc:type
           rdf:resource="http://purl.org/dc/dcmitype/StillImage" />
        <dc:title>006 C</dc:title>
      </cc:Work>
    </rdf:RDF>
  </metadata>
  <defs
     id="defs36" />
  <sodipodi:namedview
     pagecolor="#ffffff"
     bordercolor="#666666"
     borderopacity="1"
     objecttolerance="10"
     gridtolerance="10"
     guidetolerance="10"
     inkscape:pageopacity="0"
     inkscape:pageshadow="2"
     inkscape:window-width="1920"
     inkscape:window-height="1013"
     id="namedview34"
     showgrid="false"
     inkscape:zoom="5.3400704"
     inkscape:cx="40.363393"
     inkscape:cy="41.256151"
     inkscape:window-x="-9"
     inkscape:window-y="-9"
     inkscape:window-maximized="1"
     inkscape:current-layer="g26" />
  <title
     id="title2">006 C</title>
  <desc
     id="desc4">Created with Sketch.</desc>
  <g
     id="g26"
     style="fill:none;fill-rule:evenodd;stroke:none;stroke-width:1"
     transform="translate(1,0.375)">
    <g
       id="g24"
       transform="matrix(1.1038919,0,0,1.1038919,-5.0907031,-5.1556355)">
      <path
         style="fill:#ebebeb;fill-opacity:1"
         d="M 65,50 A 15,15 0 0 1 50,65 15,15 0 0 1 35,50 15,15 0 0 1 50,35 15,15 0 0 1 65,50 Z"
         id="circle6"
         inkscape:connector-curvature="0" />
      <path
         style="fill:#ebebeb;fill-opacity:1"
         d="m 50,79 a 5,5 0 0 1 -5,5 5,5 0 0 1 -5,-5 5,5 0 0 1 5,-5 5,5 0 0 1 5,5 z"
         id="circle8"
         inkscape:connector-curvature="0" />
      <path
         style="fill:#ebebeb;fill-opacity:1"
         d="m 37,14 a 5,5 0 0 1 -5,5 5,5 0 0 1 -5,-5 5,5 0 0 1 5,-5 5,5 0 0 1 5,5 z"
         id="circle10"
         inkscape:connector-curvature="0" />
      <path
         style="fill:#ebebeb;fill-opacity:1"
         d="m 15,47 a 5,5 0 0 1 -5,5 5,5 0 0 1 -5,-5 5,5 0 0 1 5,-5 5,5 0 0 1 5,5 z"
         id="circle12"
         inkscape:connector-curvature="0" />
      <path
         style="fill:#ffffff"
         d="m 87,74 a 5,5 0 0 1 -5,5 5,5 0 0 1 -5,-5 5,5 0 0 1 5,-5 5,5 0 0 1 5,5 z"
         id="circle14"
         inkscape:connector-curvature="0" />
      <path
         style="fill:#ebebeb;fill-opacity:1"
         d="m 93,39 a 5,5 0 0 1 -5,5 5,5 0 0 1 -5,-5 5,5 0 0 1 5,-5 5,5 0 0 1 5,5 z"
         id="circle16"
         inkscape:connector-curvature="0" />
      <path
         style="fill:#ebebeb;fill-opacity:1"
         d="m 75,28 a 5,5 0 0 1 -5,5 5,5 0 0 1 -5,-5 5,5 0 0 1 5,-5 5,5 0 0 1 5,5 z"
         id="circle18"
         inkscape:connector-curvature="0" />
      <path
         style="stroke:#ebebeb;stroke-width:0.5;stroke-opacity:1"
         d="M 90,50 A 40,40 0 0 1 50,90 40,40 0 0 1 10,50 40,40 0 0 1 50,10 40,40 0 0 1 90,50 Z"
         id="circle20"
         inkscape:connector-curvature="0" />
      <path
         style="stroke:#ebebeb;stroke-width:0.5;stroke-opacity:1"
         d="M 80,50 A 30,30 0 0 1 50,80 30,30 0 0 1 20,50 30,30 0 0 1 50,20 30,30 0 0 1 80,50 Z"
         id="circle22"
         inkscape:connector-curvature="0" />
    </g>
  </g>
</svg>
