<?xml version="1.0" encoding="UTF-8" standalone="no"?>
<!-- Generator: Adobe Illustrator 16.0.0, SVG Export Plug-In . SVG Version: 6.00 Build 0)  -->

<svg
   xmlns:dc="http://purl.org/dc/elements/1.1/"
   xmlns:cc="http://creativecommons.org/ns#"
   xmlns:rdf="http://www.w3.org/1999/02/22-rdf-syntax-ns#"
   xmlns:svg="http://www.w3.org/2000/svg"
   xmlns="http://www.w3.org/2000/svg"
   xmlns:sodipodi="http://sodipodi.sourceforge.net/DTD/sodipodi-0.dtd"
   xmlns:inkscape="http://www.inkscape.org/namespaces/inkscape"
   version="1.1"
   id="svg2"
   x="0px"
   y="0px"
   width="732.438px"
   height="732.406px"
   viewBox="0 0 732.438 732.406"
   enable-background="new 0 0 732.438 732.406"
   xml:space="preserve"
   sodipodi:docname="icon.svg"
   inkscape:version="0.92.3 (2405546, 2018-03-11)"
   inkscape:export-filename="D:\GoogleDrive\github\dfmdmx.github.io\assets\images\icon\icon_761.png"
   inkscape:export-xdpi="99.737694"
   inkscape:export-ydpi="99.737694"><metadata
   id="metadata40"><rdf:RDF><cc:Work
       rdf:about=""><dc:format>image/svg+xml</dc:format><dc:type
         rdf:resource="http://purl.org/dc/dcmitype/StillImage" /><dc:title></dc:title></cc:Work></rdf:RDF></metadata><defs
   id="defs38" /><sodipodi:namedview
   pagecolor="#ffffff"
   bordercolor="#666666"
   borderopacity="1"
   objecttolerance="10"
   gridtolerance="10"
   guidetolerance="10"
   inkscape:pageopacity="0"
   inkscape:pageshadow="2"
   inkscape:window-width="2400"
   inkscape:window-height="1321"
   id="namedview36"
   showgrid="false"
   inkscape:zoom="0.91139176"
   inkscape:cx="-2.9651858"
   inkscape:cy="399.17921"
   inkscape:window-x="2391"
   inkscape:window-y="-9"
   inkscape:window-maximized="1"
   inkscape:current-layer="layer3"
   inkscape:pagecheckerboard="true" />

<g
   inkscape:groupmode="layer"
   id="layer3"
   inkscape:label="Background"
   style="display:none"><rect
     style="opacity:1;fill:#ffffff;fill-opacity:1;stroke:none;stroke-width:7.55905533;stroke-linecap:round;stroke-linejoin:round;stroke-miterlimit:4;stroke-dasharray:none;stroke-opacity:0.91443846;paint-order:markers stroke fill"
     id="rect839"
     width="762.57001"
     height="765.86163"
     x="-8.7777843"
     y="-14.802856" /></g><g
   inkscape:groupmode="layer"
   id="layer4"
   inkscape:label="Icon"><g
     id="Layer_5"
     transform="translate(-13.965369,-3.8792691)">
	<g
   id="g32"
   transform="matrix(0.89363945,0,0,0.89363945,52.916171,37.093114)"
   style="opacity:0.672">
		<path
   d="m 651.758,595.207 c 50.17,-62.6 80.182,-142.061 80.182,-228.522 0,-169.771 -115.701,-312.51 -272.553,-353.7 v 118.39 c 0,8.69 -7.049,15.74 -15.738,15.74 h -154.85 c -8.7,0 -15.75,-7.05 -15.75,-15.74 V 12.985 c -156.851,41.19 -272.55,183.93 -272.55,353.7 0,201.981 163.74,365.721 365.719,365.721 96.371,0 184.031,-37.279 249.361,-98.199 h -444.76 v -39 z m -36.151,-171.23 c 6.199,0 11.23,5.027 11.23,11.229 0,6.199 -5.031,11.23 -11.23,11.23 -6.199,0 -11.221,-5.031 -11.221,-11.23 0,-6.199 5.022,-11.229 11.221,-11.229 z M 292.399,172.705 c 0,-8.69 7.049,-15.74 15.75,-15.74 h 116.138 c 8.699,0 15.75,7.05 15.75,15.74 v 40.03 c 0,8.7 -7.051,15.75 -15.75,15.75 H 308.149 c -8.701,0 -15.75,-7.05 -15.75,-15.75 z m 42.16,68.57 c -2.08,0 -3.771,-1.69 -3.771,-3.77 0,-1.04 0.421,-1.98 1.111,-2.66 0.68,-0.69 1.619,-1.11 2.658,-1.11 h 63.32 c 2.08,0 3.77,1.69 3.77,3.77 0,2.08 -1.689,3.77 -3.77,3.77 z m 63.158,13.45 v 27.89 c 0,3.62 -2.938,6.56 -6.568,6.56 h -0.318 c -3.631,0 -6.57,-2.94 -6.57,-6.56 v -27.89 c 0,-3.62 2.939,-6.56 6.57,-6.56 h 0.318 c 3.628,0 6.568,2.939 6.568,6.56 z m -23.299,34.45 h -16.4 c -3.629,0 -6.56,-2.94 -6.56,-6.56 v -27.89 c 0,-3.62 2.931,-6.56 6.56,-6.56 h 16.4 c 3.629,0 6.561,2.94 6.561,6.56 v 27.89 c 0,3.62 -2.932,6.56 -6.561,6.56 z m 1.859,12.8 v 117.232 l -11.369,13.119 c -3.631,0 -6.561,-2.939 -6.561,-6.561 v -123.79 c 0,-3.62 2.93,-6.56 6.561,-6.56 h 4.808 c 3.622,0 6.561,2.939 6.561,6.56 z m -28.099,-47.25 v 27.89 c 0,3.62 -2.938,6.56 -6.561,6.56 h -0.33 c -3.629,0 -6.561,-2.94 -6.561,-6.56 v -27.89 c 0,-3.62 2.932,-6.56 6.561,-6.56 h 0.33 c 3.622,0 6.561,2.939 6.561,6.56 z m -94.401,286.482 h 350.609 v 47 H 253.777 Z"
   id="path2"
   inkscape:connector-curvature="0"
   style="fill:#333333;stroke:#1a1a1a" />
		<rect
   x="256.54099"
   y="544.87097"
   width="343.95401"
   height="38.835999"
   id="rect4"
   style="fill:#333333" />
		<g
   id="g14">
			<g
   id="g12">
				
					<line
   stroke-miterlimit="10"
   x1="11.724"
   y1="435.797"
   x2="16.976"
   y2="435.797"
   id="line6"
   style="fill:none;stroke:#ffffff;stroke-width:3;stroke-miterlimit:10" />
				
					<line
   stroke-miterlimit="10"
   x1="27.559999"
   y1="435.797"
   x2="593.75"
   y2="435.797"
   id="line8"
   style="fill:none;stroke:#ffffff;stroke-width:3;stroke-miterlimit:10;stroke-dasharray:12.0909, 12.0909" />
				
					<line
   stroke-miterlimit="10"
   x1="599.04303"
   y1="435.797"
   x2="604.29498"
   y2="435.797"
   id="line10"
   style="fill:none;stroke:#ffffff;stroke-width:3;stroke-miterlimit:10" />
			</g>
		</g>
		
			
		
			
		
			
		
			
		
			
		<rect
   x="359.88501"
   y="478.52301"
   width="12.666"
   height="22.549"
   id="rect26"
   style="fill:#333333" />
		
		
			
	</g>
</g></g></svg>